# xmcd CD database file generated by Grip 2.9
# 
# Track frame offsets:
#       150
#       13257
#       25002
#       38205
#       50317
#       63162
#       76267
#       91612
#       103177
#       115160
#       125555
#       134327
#       144645
#       157812
#       166907
#       182482
# 
# Disc length: 2586 seconds
# 
# Revision: 3
# Processed by: cddbd v1.4b41PL1 Copyright (c) Steve Scherf et al.
# Submitted via: Grip 2.9
# 
DISCID=c40a1810
DTITLE=Sonny Boy Williamson - The Best Of Sonny Boy Williamson
DYEAR=1900
DGENRE=
TTITLE0=Work With Me
TTITLE1=Don't Start Me To Talking
TTITLE2=Let Me Explain
TTITLE3=I Know What Love Is All About
TTITLE4=Keep It To Yourself
TTITLE5=Have You Ever Been In Love
TTITLE6=Cross My Heart
TTITLE7=Born Blind
TTITLE8=Ninety Nine
TTITLE9=Let Your Conscience Be Your Guide
TTITLE10=Checkin' Up On My Baby
TTITLE11=Temperature 110
TTITLE12=Too Young To Die
TTITLE13=One Way Out
TTITLE14=Nine Below Zero
TTITLE15=Bring It On Home
EXTD=
EXTT0=
EXTT1=
EXTT2=
EXTT3=
EXTT4=
EXTT5=
EXTT6=
EXTT7=
EXTT8=
EXTT9=
EXTT10=
EXTT11=
EXTT12=
EXTT13=
EXTT14=
EXTT15=
PLAYORDER=
